#!OML:ASF E:\Steps\Project 1\Capture day 1\Session 2\Subject.ASF
:FULLY-SPECIFIED
:DEGREES
462
root 3.2892 17.9491 16.669 -154.96 -2.01706 177.213
lowerback -29.7751 -2.01231 -6.86822
upperback -1.20474 -0.966037 -0.0142788
thorax 14.4161 -1.15012 3.26746
lowerneck -1.41206 -2.29226 -0.929182
upperneck 7.44857 -3.2794 0.87253
head 2.62923 -1.70532 0.343953
rclavicle -9.69075e-016 2.51463e-014
rhumerus -35.3307 -17.5433 -79.2531
rradius 33.4563
rwrist -2.02035
rhand -4.76041 -54.138
rfingers 7.12502
rthumb 21.0236 -83.0185
lclavicle -9.69075e-016 2.51463e-014
lhumerus -30.4409 5.12826 82.6441
lradius 18.7287
lwrist -8.30705
lhand -20.8849 -14.4458
lfingers 7.12502
lthumb 5.48549 15.4632
rfemur -24.4434 9.79048 16.6415
rtibia 10.0695
rfoot -18.9663 -4.27152
rtoes -29.8441
lfemur -23.3879 -4.81326 -25.4568
ltibia 7.77772
lfoot -5.278 -8.34344
ltoes 1.37145
463
root 3.29036 17.9467 16.6639 -154.742 -1.92987 177.134
lowerback -30.3269 -1.9848 -6.87629
upperback -1.10613 -0.868026 -0.155302
thorax 14.7659 -1.11864 3.14406
lowerneck -1.39296 -2.44631 -0.44701
upperneck 7.29992 -3.47385 0.556373
head 2.56114 -1.79556 0.157628
rclavicle -4.24902e-015 -2.82274e-014
rhumerus -35.148 -17.5089 -79.5615
rradius 33.5424
rwrist -1.95097
rhand -4.75158 -54.9019
rfingers 7.12502
rthumb 21.0321 -83.7814
lclavicle -4.24902e-015 -2.82274e-014
lhumerus -30.2438 5.18018 82.5572
lradius 18.7574
lwrist -8.35351
lhand -20.763 -14.2677
lfingers 7.12502
lthumb 5.60319 15.6382
rfemur -24.7716 9.52717 16.5431
rtibia 10.254
rfoot -19.0582 -4.02969
rtoes -30.1186
lfemur -23.6314 -4.79717 -25.5628
ltibia 7.84026
lfoot -5.21293 -8.55294
ltoes 3.25521
464
root 3.29149 17.9452 16.6619 -154.492 -1.71173 177.002
lowerback -31.0034 -2.00487 -7.13037
upperback -0.905333 -0.735784 -0.162803
thorax 15.2912 -1.09557 3.31314
lowerneck -1.28668 -2.56307 -0.666228
upperneck 6.32501 -3.57967 0.739623
head 2.22783 -1.83189 0.260132
rclavicle -1.63997e-015 -1.2921e-014
rhumerus -34.6599 -17.6847 -79.5765
rradius 33.358
rwrist -1.76951
rhand -4.65646 -54.7487
rfingers 7.12502
rthumb 21.1235 -83.6181
lclavicle -1.63997e-015 -1.2921e-014
lhumerus -29.7738 5.31707 82.7281
lradius 18.7181
lwrist -8.44402
lhand -20.3333 -13.9209
lfingers 7.12502
lthumb 6.01806 15.9736
rfemur -25.2657 9.34859 16.3425
rtibia 10.6519
rfoot -19.2997 -3.75781
rtoes -30.4112
lfemur -23.8977 -4.67588 -25.775
ltibia 7.86941
lfoot -5.18583 -8.5464
ltoes 2.74536
465
root 3.29164 17.9514 16.6542 -154.828 -2.03087 177.062
lowerback -30.213 -1.96589 -7.00111
upperback -1.27785 -0.833014 -0.22283
thorax 14.5066 -1.10866 3.15206
lowerneck -1.12129 -2.51147 -0.525877
upperneck 6.89177 -3.55093 0.685677
head 2.38068 -1.82861 0.217508
rclavicle 6.95746e-016 -1.64991e-014
rhumerus -35.2965 -17.7408 -79.4498
rradius 33.1629
rwrist -1.64927
rhand -4.59595 -54.3584
rfingers 7.12502
rthumb 21.1816 -83.2213
lclavicle 6.95746e-016 -1.64991e-014
lhumerus -30.4235 5.11375 82.6307
lradius 18.7833
lwrist -8.4357
lhand -19.9759 -13.6673
lfingers 7.12502
lthumb 6.3631 16.2171
rfemur -24.7609 9.34048 16.5663
rtibia 10.5993
rfoot -19.3544 -4.11197
rtoes -31.262
lfemur -23.5071 -4.71179 -25.6566
ltibia 7.86167
lfoot -5.0987 -8.70592
ltoes 3.25646
466
root 3.29747 17.9472 16.6533 -154.479 -1.7681 176.992
lowerback -31.1016 -1.97637 -7.23714
upperback -1.02025 -0.675393 -0.204266
thorax 15.1898 -1.07914 3.34587
lowerneck -1.30811 -2.3607 -0.524355
upperneck 6.50396 -3.30485 0.464655
head 2.28002 -1.7014 0.154497
rclavicle -2.73329e-016 -2.38542e-015
rhumerus -34.5715 -17.8146 -79.5539
rradius 32.8754
rwrist -1.63933
rhand -4.66037 -54.1693
rfingers 7.12502
rthumb 21.1197 -83.039
lclavicle -2.73329e-016 -2.38542e-015
lhumerus -29.7291 5.47037 82.7393
lradius 18.5463
lwrist -8.76684
lhand -20.1133 -13.8525
lfingers 7.12502
lthumb 6.23043 16.0359
rfemur -25.2931 9.39536 16.3927
rtibia 10.7888
rfoot -19.3071 -4.0468
rtoes -31.3457
lfemur -23.8672 -4.58956 -25.773
ltibia 7.84356
lfoot -5.10296 -8.64647
ltoes 4.02656
467
root 3.30044 17.9526 16.6411 -154.929 -2.21186 177.025
lowerback -30.257 -2.05088 -7.19627
upperback -1.25402 -0.87633 -0.171179
thorax 14.5598 -1.14273 3.29545
lowerneck -1.54884 -2.49834 -0.809616
upperneck 7.00017 -3.52182 0.814001
head 2.50324 -1.81273 0.300065
rclavicle -2.95692e-015 5.96354e-016
rhumerus -34.9737 -17.6728 -79.4676
rradius 32.7758
rwrist -1.66005
rhand -4.69301 -53.9737
rfingers 7.12502
rthumb 21.0883 -82.8469
lclavicle -2.95692e-015 5.96354e-016
lhumerus -30.1987 5.33732 82.796
lradius 18.5891
lwrist -8.68314
lhand -20.4038 -14.0879
lfingers 7.12502
lthumb 5.94999 15.8086
rfemur -24.4702 9.48132 16.5964
rtibia 10.4197
rfoot -19.3438 -4.39841
rtoes -30.5497
lfemur -23.3092 -4.68149 -25.6411
ltibia 7.7855
lfoot -4.99985 -8.92417
ltoes 4.46759
468
root 3.30548 17.9463 16.6399 -154.497 -1.73083 176.894
lowerback -31.1668 -1.95787 -7.50741
upperback -1.0736 -0.559414 -0.250615
thorax 15.1391 -1.04839 3.48548
lowerneck -1.94014 -2.47372 -0.764569
upperneck 6.93703 -3.46917 0.771783
head 2.5516 -1.77912 0.275704
rclavicle -1.09332e-015 -1.07344e-014
rhumerus -34.4402 -17.9563 -79.5405
rradius 32.5807
rwrist -1.52273
rhand -4.62061 -53.6564
rfingers 7.12502
rthumb 21.1579 -82.5219
lclavicle -1.09332e-015 -1.07344e-014
lhumerus -29.692 4.94579 83.1009
lradius 18.5832
lwrist -8.51523
lhand -20.5589 -14.1384
lfingers 7.12502
lthumb 5.80028 15.7623
rfemur -25.1901 9.44374 16.3042
rtibia 10.7686
rfoot -19.4778 -3.96606
rtoes -30.5497
lfemur -23.7569 -4.39589 -25.9107
ltibia 7.786
lfoot -5.01542 -8.89904
ltoes 4.44844
469
root 3.30873 17.9454 16.6342 -154.334 -1.51821 176.733
lowerback -31.1432 -1.84588 -7.7275
upperback -1.31629 -0.372755 -0.416349
thorax 14.8133 -0.978956 3.494
lowerneck -1.98485 -2.52019 -0.534387
upperneck 7.08186 -3.54692 0.746196
head 2.60352 -1.81466 0.224282
rclavicle -6.26172e-015 2.72335e-014
rhumerus -34.7649 -18.0303 -79.562
rradius 32.5556
rwrist -1.54163
rhand -4.80265 -53.4894
rfingers 7.12502
rthumb 20.983 -82.3744
lclavicle -6.26172e-015 2.72335e-014
lhumerus -29.9484 4.47133 83.1467
lradius 18.6105
lwrist -8.5216
lhand -20.6802 -14.0843
lfingers 7.12502
lthumb 5.68312 15.8195
rfemur -25.4414 9.47225 16.0506
rtibia 10.8974
rfoot -19.4759 -3.854
rtoes -30.6844
lfemur -23.8882 -4.31497 -26.1482
ltibia 7.79087
lfoot -5.07257 -8.90375
ltoes 4.19958
470
root 3.31074 17.946 16.6264 -154.291 -1.45613 176.644
lowerback -31.5572 -1.868 -7.87123
upperback -1.1381 -0.287007 -0.445322
thorax 15.1946 -0.96309 3.5686
lowerneck -2.32725 -2.53176 -0.426758
upperneck 7.22807 -3.55427 0.602177
head 2.71051 -1.81704 0.153653
rclavicle -8.00108e-015 4.1546e-014
rhumerus -34.3932 -18.0791 -79.6541
rradius 32.4374
rwrist -1.55726
rhand -5.04269 -53.5968
rfingers 7.12502
rthumb 20.7524 -82.5071
lclavicle -8.00108e-015 4.1546e-014
lhumerus -29.5808 4.69951 83.1634
lradius 18.4741
lwrist -8.91326
lhand -20.6705 -14.0533
lfingers 7.12502
lthumb 5.69249 15.8502
rfemur -25.4827 9.41525 15.945
rtibia 10.9327
rfoot -19.435 -3.75775
rtoes -30.516
lfemur -23.8745 -4.34664 -26.2537
ltibia 7.76918
lfoot -5.13344 -8.72157
ltoes 3.27835
471
root 3.31283 17.9447 16.6167 -154.22 -1.42512 176.584
lowerback -31.4877 -1.84424 -7.92866
upperback -1.35064 -0.280252 -0.516723
thorax 14.9082 -0.961773 3.52085
lowerneck -1.99583 -2.57729 -0.390855
upperneck 6.81994 -3.60737 0.648486
head 2.51326 -1.83924 0.169396
rclavicle 7.28049e-015 2.72335e-014
rhumerus -34.6806 -18.1702 -79.5997
rradius 32.3662
rwrist -1.3574
rhand -4.97548 -53.4385
rfingers 7.12502
rthumb 20.817 -82.3417
lclavicle 7.28049e-015 2.72335e-014
lhumerus -29.9253 4.71653 83.0649
lradius 18.5826
lwrist -9.02258
lhand -20.6706 -14.1471
lfingers 7.12502
lthumb 5.69242 15.7564
rfemur -25.5867 9.30948 15.8982
rtibia 11.0716
rfoot -19.4684 -3.67108
rtoes -30.814
lfemur -23.9006 -4.40238 -26.3126
ltibia 7.76386
lfoot -5.20593 -8.38476
ltoes 1.85807
